<svg width="210" height="372" viewBox="0 0 210 372" fill="none" xmlns="http://www.w3.org/2000/svg">
<path d="M90.2821 0.595353C86.6292 0.773762 83.8524 1.40778 81.217 2.66498C78.0751 4.164 75.0818 6.84989 72.921 10.1092C71.7905 11.8143 70.4208 14.7268 69.6139 17.1406C68.5235 20.4034 67.9986 22.5846 65.6854 33.4679C62.7183 47.4265 58.7861 65.9208 58.4635 67.4334C58.2399 68.4822 56.7967 75.2663 55.2562 82.5093C48.4557 114.485 45.4547 128.6 42.8398 140.906C41.3009 148.15 39.8567 154.933 39.6306 155.982C39.4045 157.031 37.527 165.852 35.4585 175.587C33.3899 185.321 31.5145 194.143 31.2908 195.191C31.0672 196.24 29.6241 203.024 28.0839 210.267C26.5438 217.511 23.7551 230.623 21.887 239.406C20.0189 248.19 17.2249 261.329 15.6781 268.605C14.1313 275.88 12.6024 283.067 12.2805 284.574C11.9587 286.082 11.4278 288.575 11.1009 290.116C10.7739 291.657 9.24577 298.842 7.70505 306.086C0.742595 338.817 1.08428 337.085 0.653331 341.814C0.467772 343.851 0.467772 344.118 0.653927 345.866C0.887753 348.062 1.15459 349.36 1.67611 350.837C3.23614 355.254 6.30746 358.159 10.9236 359.586C13.26 360.309 15.5671 360.67 22.4107 361.385C27.7285 361.942 34.5411 362.656 43.3859 363.584C46.8271 363.944 56.0783 364.913 63.944 365.734C71.8097 366.556 81.0608 367.524 84.502 367.885C91.5489 368.623 100.566 369.568 108.874 370.438C111.955 370.761 115.145 371.093 115.965 371.178C116.804 371.265 118.937 371.334 120.851 371.334C124.73 371.334 125.666 371.219 128.015 370.442C131.105 369.419 133.453 367.897 135.876 365.344C139.041 362.01 141.161 357.684 142.781 351.254C143.545 348.219 143.72 347.378 150.836 312.462C169.32 221.777 174.595 195.891 175.733 190.305C176.414 186.962 181.186 163.552 186.338 138.284C210.279 20.8401 209.139 26.4947 209.66 22.6824C209.902 20.9065 209.868 15.9846 209.604 14.5829C208.872 10.7033 206.932 7.5534 204.096 5.64001C201.688 4.0149 199.022 3.26933 194.288 2.89738C192.705 2.77296 173.741 2.28457 173.485 2.36156C173.409 2.38396 173.2 2.43497 173.017 2.4749C172.586 2.56964 171.783 3.30187 171.498 3.8595C171.374 4.10167 171.056 5.16568 170.789 6.22385C170.037 9.21794 169.492 10.4682 168.201 12.1635C166.732 14.0954 164.767 15.4616 162.556 16.0886C161.885 16.279 161.368 16.3035 158.452 16.284C153.352 16.2499 118.257 15.2979 117.53 15.1741C115.398 14.8106 113.842 13.666 112.923 11.786C112.696 11.3226 112.419 10.5948 112.306 10.1687C112.007 9.04025 112.039 6.91473 112.381 5.10371C112.843 2.66296 112.738 1.68356 111.961 1.17432C111.552 0.906406 111.537 0.905691 101.604 0.690457C94.0105 0.525873 92.0436 0.509307 90.2821 0.595353Z" fill="white"/>
</svg>
