<svg width="250" height="504" viewBox="37 3 250 504" fill="none" xmlns="http://www.w3.org/2000/svg">
    <path d="M23.8235 43.242C20.0605 44.3742 16.5868 45.7006 14.0578 46.9706C6.65396 50.6889 1.81357 56.9458 0.451619 64.5586C-0.175345 68.0629 -0.13181 71.295 0.609959 76.3095C0.890288 78.205 5.24949 94.5634 55.3582 281.757C94.1172 426.551 110.074 485.983 110.746 488.057C112.869 494.606 115.153 498.986 118.11 502.183C123.996 508.544 131.829 510.985 141.825 509.571C145.896 508.995 146.044 508.957 222.12 488.63C298.527 468.216 304.366 466.614 308.564 464.979C315.918 462.105 320.251 458.675 323.409 453.226C326.516 447.863 327.336 442.375 326.188 434.632C326.027 433.546 325.517 430.996 325.054 428.967C323.908 423.943 217.978 28.6016 216.459 23.6797C215.272 19.8386 214.348 17.3471 213.229 14.978C208.436 4.82206 199.437 -0.494394 188.265 0.227662C183.356 0.544984 179.005 1.52952 161.409 6.30484L147.886 9.9749L147.382 10.4464C147.106 10.7056 146.797 11.1417 146.695 11.4153C146.313 12.438 146.341 12.9991 146.9 15.6561C147.49 18.4559 147.632 19.889 147.477 21.4841C147.106 25.2774 144.661 29.0554 141.323 30.993C140.798 31.2978 139.729 31.7888 138.948 32.0843C136.896 32.8601 74.9268 49.4539 72.9129 49.7669C68.4576 50.4588 64.6434 49.305 61.6116 46.3479C59.9607 44.7376 58.939 42.8363 57.8337 39.3177C56.9131 36.3873 56.3368 35.6207 54.7751 35.2501L54.1297 35.0969L39.6059 38.9801C31.6178 41.116 24.5157 43.0338 23.8235 43.242Z" fill="white" transform="rotate(15 163.5 255)" />
</svg>
