<svg width="272" height="352" viewBox="15 0 272 352" fill="none" xmlns="http://www.w3.org/2000/svg">
<path d="M166.216 0.404772C160.516 1.00197 155.2 4.15325 150.9 9.48417C149.751 10.9086 147.798 13.8764 146.603 16.0152C145.385 18.1951 139.422 30.1807 105.252 99.1413C101.509 106.693 84.4156 141.168 48.7293 213.134C39.0596 232.634 29.7144 251.486 27.9622 255.025C26.21 258.565 20.9025 269.263 16.1678 278.801C4.50611 302.292 3.53338 304.325 2.35674 307.685C1.1515 311.127 0.737481 313.449 0.826149 316.274C0.898013 318.562 1.1459 319.698 1.92401 321.301C2.98695 323.492 4.55414 325 7.04983 326.234C9.41835 327.404 10.0036 327.581 23.7346 331.3C27.9952 332.453 32.3392 333.632 33.388 333.919C34.4368 334.208 39.0757 335.469 43.6968 336.721C48.3179 337.975 54.244 339.584 56.8659 340.296C59.4878 341.009 65.1189 342.538 69.3795 343.694C80.3118 346.659 86.0545 348.219 91.5558 349.717C100.691 352.206 103.152 352.64 106.384 352.338C112.895 351.73 118.735 347.674 123.459 340.475C125.456 337.433 126.804 334.874 131.117 325.936C134.59 318.737 139.682 308.195 143.925 299.419C145.842 295.452 148.524 289.902 149.884 287.084C151.244 284.265 153.925 278.715 155.841 274.749C159.494 267.192 163.836 258.205 169.488 246.504C171.34 242.67 174.799 235.51 177.175 230.594C182.866 218.818 187.703 208.805 190.82 202.349C192.212 199.465 198.353 186.754 204.467 174.104C210.581 161.453 216.347 149.521 217.28 147.587C219.384 143.224 225.341 130.894 234.321 112.31C238.107 104.477 242.344 95.709 243.736 92.8249C246.528 87.0409 250.807 78.1858 257.382 64.5799C269.591 39.3138 269.719 39.0447 270.85 36.2157C272.615 31.805 273.312 28.3421 273.012 25.4699C272.612 21.6414 270.853 18.9799 267.634 17.3378C265.005 15.9964 263.525 15.6603 251.516 13.678L243.803 12.4048L243.258 12.6129C242.393 12.9432 241.697 13.7631 240.758 15.5561C239.584 17.7957 238.662 19.1334 237.485 20.3064C235.161 22.6199 232.503 23.8809 229.953 23.8809C229.216 23.8809 227.623 23.6651 224.639 23.1612C208.551 20.4444 192.827 17.7638 192.073 17.6091C189.585 17.0995 188.276 15.7387 187.892 13.2645C187.638 11.6257 188.053 9.89461 189.409 6.92817C190.206 5.18568 190.347 4.35442 189.933 3.83218C189.791 3.65354 189.478 3.45141 189.236 3.38312C188.606 3.20543 174.608 0.918545 172.436 0.638359C170.268 0.358531 167.609 0.25878 166.216 0.404772Z" fill="white"/>
</svg>
