<svg width="201" height="387" viewBox="0 0 201 387" fill="none" xmlns="http://www.w3.org/2000/svg">
<path d="M124.062 0.556511C122.751 0.679145 120.644 1.00104 118.997 1.33045C116.548 1.82015 99.659 5.70295 99.2069 5.8804C98.3389 6.22101 97.8661 6.88685 97.7596 7.91893C97.7229 8.27432 97.8087 9.34322 97.9619 10.4381C98.5988 14.9922 97.8155 18.0511 95.3754 20.5387C94.4638 21.4681 93.5314 22.071 92.3385 22.5023C91.6001 22.7694 55.9299 30.9759 49.4573 32.3679C48.045 32.6716 46.3784 32.6265 45.2109 32.2531C43.245 31.6241 41.4155 30.031 40.3692 28.0368C39.7044 26.7694 39.4183 25.9108 39.0131 23.9659C38.6172 22.0656 38.3528 21.3576 37.8676 20.9007C37.2872 20.3538 36.8813 20.259 35.9151 20.4449C34.5772 20.7026 20.1388 24.045 17.8288 24.632C12.025 26.1066 8.99464 27.5962 6.23891 30.3296C1.84174 34.691 0.220694 40.6841 1.13681 49.1924C1.46777 52.2654 1.57777 52.9224 4.95632 71.988C5.77531 76.6091 7.0573 83.8492 7.80537 88.077C8.55345 92.3048 9.84021 99.5716 10.6649 104.225C11.4896 108.879 12.6961 115.69 13.3459 119.361C17.0868 140.491 19.1409 152.092 20.7953 161.431C21.8173 167.199 23.6407 177.496 24.8475 184.313C26.0543 191.13 27.9581 201.882 29.0783 208.208C30.1984 214.534 32.0243 224.844 33.1358 231.119C34.2473 237.395 36.0705 247.692 37.1875 254.001C38.3044 260.311 39.5131 267.135 39.8733 269.167C40.2336 271.199 40.7656 274.202 41.0555 275.841C41.3453 277.479 42.2571 282.628 43.0817 287.282C43.9064 291.936 45.1931 299.203 45.9411 303.43C46.6892 307.657 47.9761 314.925 48.8008 319.579C49.6256 324.233 50.7794 330.749 51.3648 334.059C51.9502 337.368 52.857 342.491 53.3798 345.44C53.9028 348.39 54.819 353.565 55.4159 356.941C57.2188 367.139 57.8639 370.129 58.9425 373.294C61.1795 379.856 65.2123 384.283 70.5922 386.081C72.2182 386.624 73.6056 386.858 75.6763 386.938C78.5619 387.049 80.2901 386.851 92.0507 385.06C95.0728 384.6 99.6369 383.906 102.193 383.517C104.75 383.129 110.22 382.298 114.349 381.67C123.334 380.304 129.572 379.357 135.92 378.393C138.509 377.999 142.746 377.356 145.335 376.963C147.924 376.569 152.148 375.927 154.721 375.536C157.294 375.145 164.011 374.127 169.648 373.273C185.61 370.856 187.025 370.605 189.949 369.67C194.513 368.213 197.71 365.741 199.835 362.026C202.256 357.795 202.887 352.605 201.873 345.261C201.516 342.663 201.135 340.46 198.488 325.597C197.153 318.093 195.275 307.554 194.318 302.179C193.363 296.804 192.101 289.725 191.517 286.448C189.99 277.887 187.99 266.66 186.567 258.649C186.139 256.241 185.524 252.794 185.2 250.992C184.877 249.19 184.045 244.523 183.352 240.624C182.059 233.352 181.36 229.432 179.489 218.934C178.901 215.624 177.505 207.794 176.391 201.534C175.276 195.273 174.092 188.624 173.759 186.756C173.426 184.887 172.858 181.697 172.498 179.665C172.138 177.633 171.713 175.247 171.553 174.361C171.283 172.867 169.55 163.141 167.731 152.909C167.306 150.516 166.747 147.38 166.488 145.938C166.23 144.495 165.265 139.079 164.343 133.901C163.422 128.722 162.105 121.321 161.416 117.454C160.726 113.587 159.814 108.465 159.389 106.073C157.648 96.2994 157.028 92.8201 156.3 88.7324C155.879 86.3727 155.052 81.7337 154.463 78.4236C153.066 70.5786 151.223 60.2327 149.516 50.6553C148.763 46.4275 147.365 38.5707 146.41 33.1958C144.008 19.6804 143.46 17.0576 142.352 13.7847C139.487 5.31443 133.916 0.711204 126.327 0.544355C125.376 0.523499 124.357 0.531689 124.062 0.556511Z" fill="white"/>
</svg>
